<svg xmlns="http://www.w3.org/2000/svg" width="90" height="36" viewBox="0 0 90 36">
  <g id="Grupo_569" data-name="Grupo 569" transform="translate(-15 -15)">
    <text id="Movies" transform="translate(54 38)" fill="#f6f6f6" font-size="14" font-family="Poppins-SemiBold, Poppins" font-weight="600"><tspan x="0" y="0">Movies</tspan></text>
    <path id="Icon_simple-dell" data-name="Icon simple-dell" d="M26.944,21.9V13.986h1.833v6.306h3.21v1.6H26.944ZM12.269,16.968l4.47-3.438c.421.342.84.687,1.261,1.031l-4.24,3.21.917.8,4.24-3.324c.421.342.84.687,1.261,1.032q-2.11,1.675-4.24,3.324l.915.8L21.1,16.966V13.987h1.834v6.306h3.324v1.6H21.211v-2.98q-2.239,1.717-4.472,3.438l-4.472-3.438A3.719,3.719,0,0,1,10.3,21.459a3.976,3.976,0,0,1-1.372.414A6.906,6.906,0,0,1,8.1,21.9H5.274V13.988H8.535a3.816,3.816,0,0,1,2.344.836,4.1,4.1,0,0,1,1.391,2.145M7,15.593v4.815H8.425a2.066,2.066,0,0,0,1.554-.785,2.61,2.61,0,0,0,.273-2.833,2.241,2.241,0,0,0-1.464-1.149,3.4,3.4,0,0,0-.76-.048H7ZM17.73,0h.506a17.91,17.91,0,0,1,8.107,2.06A18.151,18.151,0,0,1,32.532,7.4,17.9,17.9,0,0,1,36,17.73v.54A17.966,17.966,0,0,1,18.273,36h-.542A18.017,18.017,0,0,1,0,18.272V17.73A17.886,17.886,0,0,1,2.988,8.136a18.316,18.316,0,0,1,7.065-6.258A17.812,17.812,0,0,1,17.73,0M17.5,1.845A16.159,16.159,0,0,0,2.877,12.267,16.17,16.17,0,0,0,8.486,31.079,16.047,16.047,0,0,0,15.665,34a16.342,16.342,0,0,0,6.564-.39A16.157,16.157,0,0,0,33.87,21.095a16.373,16.373,0,0,0-.183-7.023A16.13,16.13,0,0,0,17.5,1.845Z" transform="translate(15 15)" fill="#f6f6f6"/>
  </g>
</svg>
